<svg xmlns="http://www.w3.org/2000/svg" width="320" height="320" viewBox="0 0 64 64" role="img">
    <title>Silk avatar</title>
    <defs>
    <filter id="blur-1-oreo-1jz6ffw" x="-40%" y="-40%" width="180%" height="180%"><feGaussianBlur stdDeviation="1.1"/></filter>
    <filter id="blur-3-oreo-1jz6ffw" x="-55%" y="-55%" width="210%" height="210%"><feGaussianBlur stdDeviation="3.2"/></filter>
    <filter id="blur-5-oreo-1jz6ffw" x="-70%" y="-70%" width="240%" height="240%"><feGaussianBlur stdDeviation="5.1"/></filter>
    <filter id="blur-6-oreo-1jz6ffw" x="-75%" y="-75%" width="250%" height="250%"><feGaussianBlur stdDeviation="5.7"/></filter>
    <filter id="blur-8-oreo-1jz6ffw" x="-85%" y="-85%" width="270%" height="270%"><feGaussianBlur stdDeviation="8.4"/></filter>
    <filter id="blur-10-oreo-1jz6ffw" x="-95%" y="-95%" width="290%" height="290%"><feGaussianBlur stdDeviation="10.4"/></filter>
    <filter id="blur-14-oreo-1jz6ffw" x="-120%" y="-120%" width="340%" height="340%"><feGaussianBlur stdDeviation="13.8"/></filter><clipPath id="clip-oreo-1jz6ffw"><rect width="64" height="64" rx="32" fill="#ffffff"/></clipPath>
    <radialGradient id="edge-oreo-1jz6ffw" gradientUnits="userSpaceOnUse" cx="32" cy="32" r="32">
      <stop offset="98.4375%" stop-color="#ffffff"/>
      <stop offset="100%" stop-color="#ffffff" stop-opacity="0"/>
    </radialGradient>
    <mask id="edge-mask-oreo-1jz6ffw" maskUnits="userSpaceOnUse" maskContentUnits="userSpaceOnUse" x="0" y="0" width="64" height="64" style="mask-type:alpha">
      <rect width="64" height="64" fill="url(#edge-oreo-1jz6ffw)"/>
    </mask></defs>
    <rect width="100%" height="100%" fill="#ffffff"/>
    <g mask="url(#edge-mask-oreo-1jz6ffw)">
      <g clip-path="url(#clip-oreo-1jz6ffw)">
    <g transform="translate(32.000 32.000) rotate(0.000)"><rect x="-32.000" y="-32.000" width="64.000" height="64.000" rx="16.250" fill="#70478f" opacity="1.000"/></g>
    
    <g transform="translate(32 32) rotate(0)" opacity="0.58">
      <rect x="-30.800" y="-30.800" width="61.600" height="61.600" rx="15.050" fill="none" stroke="#ffffff" stroke-width="1.400" opacity="0.38" filter="url(#blur-1-oreo-1jz6ffw)"/>
      <rect x="-30.000" y="-30.000" width="60.000" height="60.000" rx="14.250" fill="none" stroke="#aec6cf" stroke-width="2.400" opacity="0.24" filter="url(#blur-3-oreo-1jz6ffw)"/>
      <rect x="-28.000" y="-28.000" width="56.000" height="56.000" rx="12.250" fill="none" stroke="#aec6cf" stroke-width="4.000" opacity="0.18" filter="url(#blur-5-oreo-1jz6ffw)"/>
    </g>
    <g transform="translate(32.000 34.290) rotate(0.000)"><rect x="-35.050" y="-37.335" width="70.100" height="74.670" rx="16.250" fill="#ffd29d" opacity="1.000"/></g>
    
    <g transform="translate(32 34.29) rotate(0)" opacity="0.42">
      <rect x="-33.850" y="-36.135" width="67.700" height="72.270" rx="15.050" fill="none" stroke="#ffffff" stroke-width="1.400" opacity="0.38" filter="url(#blur-1-oreo-1jz6ffw)"/>
      <rect x="-33.050" y="-35.335" width="66.100" height="70.670" rx="14.250" fill="none" stroke="#aec6cf" stroke-width="2.400" opacity="0.24" filter="url(#blur-3-oreo-1jz6ffw)"/>
      <rect x="-31.050" y="-33.335" width="62.100" height="66.670" rx="12.250" fill="none" stroke="#aec6cf" stroke-width="4.000" opacity="0.18" filter="url(#blur-5-oreo-1jz6ffw)"/>
    </g>
    <g transform="translate(32.000 6.250) rotate(0.000)"><rect x="-46.815" y="-39.795" width="93.630" height="79.590" rx="50.790" fill="#ff8f47" opacity="0.900" filter="url(#blur-10-oreo-1jz6ffw)"/></g>
    <g transform="translate(32.030 18.350) rotate(0.000)"><rect x="-23.895" y="-21.355" width="47.790" height="42.710" rx="50.840" fill="#fff8e8" opacity="0.920" filter="url(#blur-8-oreo-1jz6ffw)"/></g></g>
    </g>
  </svg>