<svg width="16" height="16" viewBox="0 0 16 16" fill="none" xmlns="http://www.w3.org/2000/svg">
<path d="M10.3327 4.33333V3C10.3327 2.44771 9.88495 2 9.33268 2H6.66602C6.11373 2 5.66602 2.44771 5.66602 3V4.33333" stroke="#707070" stroke-width="1.2" stroke-linecap="round" stroke-linejoin="round"/>
<path d="M14.6673 12.6668V5.66683C14.6673 4.93045 14.0704 4.3335 13.334 4.3335H2.66732C1.93094 4.3335 1.33398 4.93045 1.33398 5.66683V12.6668C1.33398 13.4032 1.93094 14.0002 2.66732 14.0002H13.334C14.0704 14.0002 14.6673 13.4032 14.6673 12.6668Z" stroke="#707070" stroke-width="1.2" stroke-linecap="round" stroke-linejoin="round"/>
<path d="M1.33398 6.6665C1.33398 6.6665 2.84786 9.0061 7.00065 9.33317M14.6673 6.6665C14.6673 6.6665 13.1535 9.0061 9.00065 9.33317" stroke="#707070" stroke-width="1.2" stroke-linecap="round" stroke-linejoin="round"/>
<path d="M7 9.3335V8.66683C7 8.48276 7.14927 8.3335 7.33333 8.3335H8.66667C8.85073 8.3335 9 8.48276 9 8.66683V9.3335C9 9.88576 8.55227 10.3335 8 10.3335C7.44773 10.3335 7 9.88576 7 9.3335Z" stroke="#707070" stroke-width="1.2" stroke-linecap="round" stroke-linejoin="round"/>
</svg>
