<svg width="120" height="32" viewBox="0 0 120 32" fill="none" xmlns="http://www.w3.org/2000/svg">
<rect width="120" height="32" rx="8" fill="white" fill-opacity="0.09"/>
<rect x="0.5" y="0.5" width="119" height="31" rx="7.5" stroke="#D5F1E1" stroke-opacity="0.24"/>
<path d="M19.9993 21.8332C23.221 21.8332 25.8327 19.2215 25.8327 15.9998C25.8327 12.7782 23.221 10.1665 19.9993 10.1665C16.7777 10.1665 14.166 12.7782 14.166 15.9998C14.166 19.2215 16.7777 21.8332 19.9993 21.8332Z" stroke="#D9F6E5" stroke-width="1.2" stroke-linecap="round" stroke-linejoin="round"/>
<path d="M20 13.6665V15.9998L21.1667 17.1665" stroke="#D9F6E5" stroke-width="1.2" stroke-linecap="round" stroke-linejoin="round"/>
<path d="M36.6506 21H35.358L39.0966 10.8182H40.3693L44.108 21H42.8153L39.7727 12.429H39.6932L36.6506 21ZM37.1278 17.0227H42.3381V18.1165H37.1278V17.0227ZM48.2773 13.3636V14.358H44.3199V13.3636H48.2773ZM45.4733 11.5341H46.6466V18.8125C46.6466 19.1439 46.6947 19.3925 46.7908 19.5582C46.8902 19.7206 47.0162 19.83 47.1686 19.8864C47.3244 19.9394 47.4885 19.9659 47.6608 19.9659C47.7901 19.9659 47.8962 19.9593 47.979 19.946C48.0619 19.9295 48.1282 19.9162 48.1779 19.9062L48.4165 20.9602C48.337 20.9901 48.2259 21.0199 48.0834 21.0497C47.9409 21.0829 47.7603 21.0994 47.5415 21.0994C47.2101 21.0994 46.8853 21.0282 46.5671 20.8857C46.2522 20.7431 45.9904 20.526 45.7816 20.2344C45.5761 19.9427 45.4733 19.5748 45.4733 19.1307V11.5341ZM53.2632 13.3636V14.358H49.3059V13.3636H53.2632ZM50.4593 11.5341H51.6326V18.8125C51.6326 19.1439 51.6806 19.3925 51.7767 19.5582C51.8762 19.7206 52.0021 19.83 52.1546 19.8864C52.3104 19.9394 52.4744 19.9659 52.6468 19.9659C52.776 19.9659 52.8821 19.9593 52.965 19.946C53.0478 19.9295 53.1141 19.9162 53.1638 19.9062L53.4025 20.9602C53.3229 20.9901 53.2119 21.0199 53.0694 21.0497C52.9268 21.0829 52.7462 21.0994 52.5275 21.0994C52.196 21.0994 51.8712 21.0282 51.553 20.8857C51.2382 20.7431 50.9763 20.526 50.7675 20.2344C50.562 19.9427 50.4593 19.5748 50.4593 19.1307V11.5341ZM58.0478 21.1591C57.312 21.1591 56.6773 20.9967 56.1437 20.6719C55.6134 20.3438 55.2041 19.8864 54.9157 19.2997C54.6307 18.7098 54.4882 18.0237 54.4882 17.2415C54.4882 16.4593 54.6307 15.7699 54.9157 15.1733C55.2041 14.5734 55.6051 14.1061 56.1189 13.7713C56.6359 13.4332 57.2391 13.2642 57.9285 13.2642C58.3262 13.2642 58.719 13.3305 59.1068 13.4631C59.4946 13.5956 59.8476 13.8111 60.1657 14.1094C60.4839 14.4044 60.7375 14.7955 60.9264 15.2827C61.1153 15.7699 61.2098 16.3698 61.2098 17.0824V17.5795H55.3234V16.5653H60.0166C60.0166 16.1345 59.9304 15.75 59.7581 15.4119C59.589 15.0739 59.3471 14.8071 59.0322 14.6115C58.7207 14.416 58.3528 14.3182 57.9285 14.3182C57.4612 14.3182 57.0568 14.4342 56.7154 14.6662C56.3774 14.8949 56.1172 15.1932 55.9349 15.5611C55.7526 15.929 55.6615 16.3234 55.6615 16.7443V17.4205C55.6615 17.9972 55.7609 18.486 55.9598 18.8871C56.1619 19.2848 56.442 19.5881 56.8 19.7969C57.1579 20.0024 57.5739 20.1051 58.0478 20.1051C58.3561 20.1051 58.6345 20.062 58.8831 19.9759C59.135 19.8864 59.352 19.7538 59.5343 19.5781C59.7166 19.3991 59.8575 19.1771 59.9569 18.9119L61.0904 19.2301C60.9711 19.6146 60.7706 19.9527 60.4889 20.2443C60.2072 20.5327 59.8592 20.758 59.4449 20.9205C59.0306 21.0795 58.5649 21.1591 58.0478 21.1591ZM64.0679 16.4062V21H62.8946V13.3636H64.0281V14.5568H64.1275C64.3065 14.169 64.5783 13.8575 64.9429 13.6222C65.3074 13.3835 65.7781 13.2642 66.3548 13.2642C66.8718 13.2642 67.3243 13.3703 67.712 13.5824C68.0998 13.7912 68.4014 14.1094 68.6169 14.5369C68.8323 14.9612 68.94 15.4981 68.94 16.1477V21H67.7667V16.2273C67.7667 15.6274 67.611 15.16 67.2994 14.8253C66.9878 14.4872 66.5603 14.3182 66.0167 14.3182C65.6422 14.3182 65.3074 14.3994 65.0125 14.5618C64.7208 14.7242 64.4904 14.9612 64.3214 15.2727C64.1524 15.5843 64.0679 15.9621 64.0679 16.4062ZM73.8675 21.1591C73.2312 21.1591 72.6694 20.9983 72.1822 20.6768C71.695 20.352 71.3138 19.8946 71.0387 19.3047C70.7636 18.7114 70.6261 18.0104 70.6261 17.2017C70.6261 16.3996 70.7636 15.7036 71.0387 15.1136C71.3138 14.5237 71.6966 14.0679 72.1871 13.7464C72.6777 13.425 73.2444 13.2642 73.8874 13.2642C74.3846 13.2642 74.7773 13.3471 75.0657 13.5128C75.3574 13.6752 75.5794 13.8608 75.7319 14.0696C75.8877 14.2751 76.0086 14.4441 76.0948 14.5767H76.1942V10.8182H77.3675V21H76.234V19.8267H76.0948C76.0086 19.9659 75.886 20.1416 75.7269 20.3537C75.5678 20.5625 75.3408 20.7498 75.0458 20.9155C74.7508 21.0779 74.3581 21.1591 73.8675 21.1591ZM74.0266 20.1051C74.4973 20.1051 74.895 19.9825 75.2198 19.7372C75.5446 19.4886 75.7915 19.1456 75.9606 18.7081C76.1296 18.2673 76.2141 17.7585 76.2141 17.1818C76.2141 16.6117 76.1313 16.1129 75.9656 15.6854C75.7998 15.2545 75.5546 14.9197 75.2298 14.6811C74.9049 14.4392 74.5039 14.3182 74.0266 14.3182C73.5295 14.3182 73.1152 14.4458 72.7837 14.701C72.4556 14.9529 72.2087 15.2959 72.043 15.7301C71.8806 16.161 71.7994 16.6449 71.7994 17.1818C71.7994 17.7254 71.8822 18.2192 72.0479 18.6634C72.217 19.1042 72.4656 19.4555 72.7937 19.7173C73.1251 19.9759 73.5361 20.1051 74.0266 20.1051ZM81.8265 21.179C81.3426 21.179 80.9034 21.0878 80.509 20.9055C80.1146 20.7199 79.8014 20.4531 79.5694 20.1051C79.3374 19.7538 79.2214 19.3295 79.2214 18.8324C79.2214 18.3949 79.3076 18.0402 79.4799 17.7685C79.6523 17.4934 79.8826 17.2779 80.171 17.1222C80.4593 16.9664 80.7775 16.8504 81.1255 16.7741C81.4768 16.6946 81.8298 16.6316 82.1844 16.5852C82.6485 16.5256 83.0246 16.4808 83.313 16.451C83.6047 16.4179 83.8168 16.3632 83.9494 16.2869C84.0853 16.2107 84.1532 16.0781 84.1532 15.8892V15.8494C84.1532 15.3589 84.019 14.9777 83.7505 14.706C83.4853 14.4342 83.0826 14.2983 82.5424 14.2983C81.9823 14.2983 81.5431 14.4209 81.2249 14.6662C80.9067 14.9115 80.683 15.1733 80.5538 15.4517L79.4401 15.054C79.639 14.59 79.9041 14.2287 80.2356 13.9702C80.5703 13.7083 80.9349 13.526 81.3293 13.4233C81.7271 13.3172 82.1182 13.2642 82.5026 13.2642C82.7479 13.2642 83.0296 13.294 83.3478 13.3537C83.6693 13.41 83.9792 13.5277 84.2775 13.7067C84.5791 13.8857 84.8293 14.1558 85.0282 14.517C85.2271 14.8783 85.3265 15.3622 85.3265 15.9688V21H84.1532V19.9659H84.0935C84.014 20.1316 83.8814 20.3089 83.6958 20.4979C83.5102 20.6868 83.2633 20.8475 82.955 20.9801C82.6468 21.1127 82.2706 21.179 81.8265 21.179ZM82.0055 20.125C82.4695 20.125 82.8606 20.0339 83.1788 19.8516C83.5003 19.6693 83.7422 19.4339 83.9046 19.1456C84.0703 18.8572 84.1532 18.554 84.1532 18.2358V17.1619C84.1035 17.2216 83.9941 17.2763 83.8251 17.326C83.6594 17.3724 83.4671 17.4138 83.2484 17.4503C83.0329 17.4834 82.8225 17.5133 82.617 17.5398C82.4148 17.563 82.2507 17.5829 82.1248 17.5994C81.8199 17.6392 81.5348 17.7038 81.2697 17.7933C81.0078 17.8795 80.7957 18.0104 80.6333 18.1861C80.4742 18.3584 80.3947 18.5937 80.3947 18.892C80.3947 19.2997 80.5455 19.608 80.8471 19.8168C81.152 20.0223 81.5381 20.125 82.0055 20.125ZM88.5413 16.4062V21H87.368V13.3636H88.5015V14.5568H88.601C88.7799 14.169 89.0517 13.8575 89.4163 13.6222C89.7809 13.3835 90.2515 13.2642 90.8282 13.2642C91.3453 13.2642 91.7977 13.3703 92.1855 13.5824C92.5733 13.7912 92.8749 14.1094 93.0903 14.5369C93.3057 14.9612 93.4135 15.4981 93.4135 16.1477V21H92.2402V16.2273C92.2402 15.6274 92.0844 15.16 91.7728 14.8253C91.4613 14.4872 91.0337 14.3182 90.4902 14.3182C90.1156 14.3182 89.7809 14.3994 89.4859 14.5618C89.1942 14.7242 88.9639 14.9612 88.7949 15.2727C88.6258 15.5843 88.5413 15.9621 88.5413 16.4062ZM98.5597 21.1591C97.8438 21.1591 97.2273 20.9901 96.7103 20.652C96.1933 20.3139 95.7955 19.8482 95.5171 19.255C95.2387 18.6617 95.0995 17.9839 95.0995 17.2216C95.0995 16.446 95.242 15.7616 95.5271 15.1683C95.8154 14.5717 96.2165 14.1061 96.7302 13.7713C97.2472 13.4332 97.8505 13.2642 98.5398 13.2642C99.0768 13.2642 99.5607 13.3636 99.9915 13.5625C100.422 13.7614 100.775 14.0398 101.05 14.3977C101.326 14.7557 101.496 15.1733 101.563 15.6506H100.389C100.3 15.3026 100.101 14.9943 99.7927 14.7259C99.4878 14.4541 99.0768 14.3182 98.5597 14.3182C98.1023 14.3182 97.7013 14.4375 97.3566 14.6761C97.0152 14.9115 96.7484 15.2446 96.5562 15.6754C96.3673 16.103 96.2728 16.6051 96.2728 17.1818C96.2728 17.7718 96.3656 18.2855 96.5512 18.723C96.7401 19.1605 97.0053 19.5002 97.3467 19.7422C97.6914 19.9841 98.0957 20.1051 98.5597 20.1051C98.8647 20.1051 99.1414 20.0521 99.39 19.946C99.6386 19.84 99.849 19.6875 100.021 19.4886C100.194 19.2898 100.316 19.0511 100.389 18.7727H101.563C101.496 19.2235 101.332 19.6295 101.07 19.9908C100.812 20.3487 100.469 20.6338 100.041 20.8459C99.617 21.0547 99.1232 21.1591 98.5597 21.1591ZM106.379 21.1591C105.644 21.1591 105.009 20.9967 104.475 20.6719C103.945 20.3438 103.536 19.8864 103.247 19.2997C102.962 18.7098 102.82 18.0237 102.82 17.2415C102.82 16.4593 102.962 15.7699 103.247 15.1733C103.536 14.5734 103.937 14.1061 104.45 13.7713C104.968 13.4332 105.571 13.2642 106.26 13.2642C106.658 13.2642 107.051 13.3305 107.438 13.4631C107.826 13.5956 108.179 13.8111 108.497 14.1094C108.816 14.4044 109.069 14.7955 109.258 15.2827C109.447 15.7699 109.541 16.3698 109.541 17.0824V17.5795H103.655V16.5653H108.348C108.348 16.1345 108.262 15.75 108.09 15.4119C107.921 15.0739 107.679 14.8071 107.364 14.6115C107.052 14.416 106.684 14.3182 106.26 14.3182C105.793 14.3182 105.388 14.4342 105.047 14.6662C104.709 14.8949 104.449 15.1932 104.267 15.5611C104.084 15.929 103.993 16.3234 103.993 16.7443V17.4205C103.993 17.9972 104.093 18.486 104.291 18.8871C104.494 19.2848 104.774 19.5881 105.132 19.7969C105.49 20.0024 105.906 20.1051 106.379 20.1051C106.688 20.1051 106.966 20.062 107.215 19.9759C107.467 19.8864 107.684 19.7538 107.866 19.5781C108.048 19.3991 108.189 19.1771 108.289 18.9119L109.422 19.2301C109.303 19.6146 109.102 19.9527 108.821 20.2443C108.539 20.5327 108.191 20.758 107.776 20.9205C107.362 21.0795 106.897 21.1591 106.379 21.1591Z" fill="#E5F5EB"/>
</svg>
